<?xml version="1.0" encoding="UTF-8"?>
<svg version="1.1" xmlns="http://www.w3.org/2000/svg" width="796" height="1048">
<path d="M0 0 C9.44795412 3.8818768 14.95393759 18.0408618 19 27 C33.10844242 61.27886395 30.62520424 99.21807082 16.59008789 133.12402344 C15.14504893 136.45840569 13.59571141 139.7353794 12 143 C11.63922363 143.74072754 11.27844727 144.48145508 10.90673828 145.24462891 C-0.10832871 167.57801548 -14.63226023 187.31121276 -31 206 C-31.92389526 207.05852173 -31.92389526 207.05852173 -32.86645508 208.13842773 C-38.92317511 214.97841029 -45.30607553 221.45955362 -51.77514648 227.90551758 C-53.5667595 229.6917467 -55.35293055 231.48329347 -57.13867188 233.27539062 C-62.92302149 239.06345292 -68.73588789 244.72640896 -75 250 C-76.11847384 250.97248086 -77.23568948 251.94641093 -78.3515625 252.921875 C-84.15026256 257.94333043 -90.00503237 262.85527236 -96.0625 267.5625 C-117.64753311 284.34684849 -138.83165405 302.82813489 -155 325 C-156.16595703 326.56621094 -156.16595703 326.56621094 -157.35546875 328.1640625 C-175.29732748 353.05414535 -185.24304422 382.09843593 -180.3125 412.99609375 C-174.526756 443.02122823 -157.26388542 469.38522898 -140 494 C-139.41105957 494.84030762 -138.82211914 495.68061523 -138.21533203 496.54638672 C-137.01281144 498.26153172 -135.81009363 499.97653847 -134.60717773 501.69140625 C-134.01493408 502.53574219 -133.42269043 503.38007813 -132.8125 504.25 C-132.22476807 505.08789062 -131.63703613 505.92578125 -131.03149414 506.7890625 C-100 551.1036188 -100 551.1036188 -100 560 C-103.25207092 558.58261511 -105.31361067 556.87473588 -107.75 554.3125 C-110.28933252 551.65046863 -112.91665427 549.17585764 -115.6965332 546.77050781 C-128.83724316 535.31048268 -141.17695983 522.98396132 -153.48510742 510.64526367 C-156.08722821 508.03772025 -158.69473753 505.43564936 -161.30273438 502.83398438 C-162.98469617 501.15136265 -164.66634821 499.46843122 -166.34765625 497.78515625 C-167.11441177 497.02042496 -167.8811673 496.25569366 -168.67115784 495.4677887 C-173.31457016 490.80428849 -177.72191511 485.99966402 -182 481 C-182.845625 480.03578125 -183.69125 479.0715625 -184.5625 478.078125 C-211.71006176 446.57999244 -239.18310412 407.64777022 -236 364 C-233.22865715 342.66710502 -223.39168373 325.3203506 -210 309 C-209.56768066 308.4647168 -209.13536133 307.92943359 -208.68994141 307.37792969 C-197.40517001 293.46405991 -184.60577947 280.63998628 -171 269 C-169.88229612 268.0266343 -168.76508666 267.0527005 -167.6484375 266.078125 C-161.35288801 260.6258483 -154.97138697 255.32735443 -148.39428711 250.21801758 C-143.85487313 246.68876351 -139.38850195 243.07744228 -134.9375 239.4375 C-128.58685386 234.25235384 -122.13851552 229.22170085 -115.62402344 224.24462891 C-107.48631211 218.00800047 -99.47708106 211.64519939 -91.68359375 204.98242188 C-88.33292524 202.11800892 -84.93729057 199.32327607 -81.5 196.5625 C-76.16403091 192.22071438 -71.1373357 187.59231193 -66.1171875 182.89453125 C-63.48248019 180.43200086 -60.78275274 178.05545771 -58.0625 175.6875 C-46.82317783 165.57940831 -37.03463882 154.08568078 -28 142 C-27.37867188 141.175 -26.75734375 140.35 -26.1171875 139.5 C-0.76945039 104.60265031 9.96447269 63.28264848 3.625 20.4375 C3.1228638 17.28382146 2.57370665 14.14134985 2 11 C1.78730469 9.76765625 1.57460938 8.5353125 1.35546875 7.265625 C0.92725912 4.83807686 0.48122922 2.41746912 0 0 Z " fill="#EA2C2D" transform="translate(500,0)"/>
<path d="M0 0 C0.99974854 -0.01023193 1.99949707 -0.02046387 3.02954102 -0.03100586 C11.31360059 0.06858393 19.19887273 1.50561097 26.5625 5.4375 C26.5625 6.0975 26.5625 6.7575 26.5625 7.4375 C25.59054688 7.46328125 24.61859375 7.4890625 23.6171875 7.515625 C4.30251988 8.22780722 -14.1543369 12.30155671 -32.4375 18.4375 C-33.14600098 18.67194824 -33.85450195 18.90639648 -34.58447266 19.14794922 C-42.5285375 21.81605538 -50.09755426 25.06539824 -57.5625 28.875 C-58.26141357 29.22216064 -58.96032715 29.56932129 -59.68041992 29.92700195 C-64.57892685 32.52612492 -68.43275586 35.71398992 -71.4375 40.4375 C-72.01978923 43.61046435 -72.01978923 43.61046435 -70.4375 46.4375 C-33.31648383 82.65312553 70.97417088 77.4170146 119.5625 79.4375 C120.52236816 79.47986786 121.48223633 79.52223572 122.47119141 79.56588745 C147.16255976 80.63181637 171.85233472 80.63722469 196.5625 80.625 C197.6340395 80.62488041 198.70557899 80.62476082 199.80958939 80.6246376 C232.44735737 80.6200334 265.01450436 80.36601612 297.61230469 78.59570312 C300.64616155 78.43301368 303.68038419 78.27991243 306.71484375 78.12890625 C434.60493709 78.36199519 434.60493709 78.36199519 549.8046875 35.2890625 C554.20498967 30.39394723 555.89515171 27.42140483 555.86328125 20.82421875 C555.38667168 17.04229084 553.60203551 14.62427423 551.5625 11.4375 C551.5625 10.4475 551.5625 9.4575 551.5625 8.4375 C566.55257718 16.41765436 566.55257718 16.41765436 570.5625 24.4375 C571.36181696 29.78988827 571.13314808 34.3016771 568.3125 39 C534.72299515 83.34438112 438.9813287 90.47687926 388.05870056 97.53036499 C355.50142127 101.95320831 322.84655116 105.01461812 290.0625 107.125 C289.11964142 107.18593842 288.17678284 107.24687683 287.20535278 107.30966187 C280.65975069 107.72686765 274.11237307 108.09440266 267.5625 108.4375 C266.21798767 108.51168655 266.21798767 108.51168655 264.84631348 108.58737183 C242.90870731 109.76244365 220.93788502 109.62487149 198.97607422 109.62280273 C194.56945634 109.62272214 190.16294391 109.62957053 185.75634766 109.64331055 C155.30425222 109.73663514 124.96987549 109.12628648 94.5625 107.4375 C93.50749046 107.37908243 93.50749046 107.37908243 92.4311676 107.31948471 C84.21833032 106.85982085 76.01463751 106.30793975 67.8125 105.6875 C66.13980545 105.56294937 66.13980545 105.56294937 64.43331909 105.43588257 C26.00597882 102.55173421 -12.26469517 98.49188903 -50.42772293 93.1640892 C-52.45788567 92.88087508 -54.48831364 92.59962434 -56.51876831 92.31851196 C-69.81928138 90.46403225 -83.06466216 88.44667184 -96.2421875 85.84765625 C-97.24359268 85.6515123 -98.24499786 85.45536835 -99.27674866 85.25328064 C-112.42673066 82.5627126 -127.64010548 78.40165051 -136.3671875 67.45703125 C-138.44739868 63.53196125 -138.22127167 59.71703202 -137.4375 55.4375 C-129.85201814 36.63869714 -104.7177805 26.83097599 -87.4375 19.4375 C-59.80267028 8.0078114 -30.00903508 0.23133977 0 0 Z " fill="#0073BD" transform="translate(159.4375,862.5625)"/>
<path d="M0 0 C-6.18563691 3.84911402 -12.39827828 7.64843207 -18.65625 11.37890625 C-36.71890576 22.1467531 -54.60568133 33.17563955 -72 45 C-73.17829575 45.78789452 -74.35668743 46.5756456 -75.53515625 47.36328125 C-93.71254537 59.59801788 -111.33321752 72.96930567 -127.5234375 87.74609375 C-129.20252205 89.2742196 -130.89580823 90.78685858 -132.6015625 92.28515625 C-137.8365676 96.89544019 -142.60748778 101.58163568 -147 107 C-147.78246094 107.94488281 -148.56492187 108.88976562 -149.37109375 109.86328125 C-162.39374255 125.92021222 -170.8706188 143.6169995 -169.25732422 164.73730469 C-167.04914146 184.15422859 -155.61800346 201.47919814 -144.45605469 216.97460938 C-142.9178772 219.11423386 -141.39850256 221.26626867 -139.8828125 223.421875 C-134.46593211 231.15276456 -134.46593211 231.15276456 -128.93359375 238.80078125 C-116.45838489 255.85302423 -110.38427988 274.94974668 -113.28125 296.04833984 C-115.14254374 306.51018549 -119.87767139 315.81384059 -125 325 C-125.54527344 325.98871094 -126.09054687 326.97742188 -126.65234375 327.99609375 C-131.01310713 335.34222081 -136.60314406 341.37817402 -142.52294922 347.47607422 C-143.86278388 348.85842925 -145.18443714 350.25834897 -146.50390625 351.66015625 C-160.02970365 365.7207463 -177.0345631 377.4623669 -194 387 C-194.66 387 -195.32 387 -196 387 C-195.1875 385.0625 -195.1875 385.0625 -194 383 C-193.01 382.67 -192.02 382.34 -191 382 C-190.30407441 380.68170193 -189.64146874 379.34563743 -189 378 C-187.82319364 376.67954591 -186.61083608 375.39037797 -185.375 374.125 C-171.11981232 358.36926624 -164.80257183 338.21440587 -165.8046875 317.28271484 C-166.96323244 303.74222081 -174.4405616 291.18171463 -183 281 C-192.12709889 270.12263057 -200.39126202 258.99477883 -208 247 C-208.66773438 245.96488281 -209.33546875 244.92976562 -210.0234375 243.86328125 C-226.68866838 216.82941125 -233.01461352 185.05377066 -226 154 C-215.31776544 110.43701341 -176.53331395 78.99099452 -140.08984375 56.578125 C-101.07250601 32.98109516 -58.52106824 15.45475694 -14.9375 2.3125 C-13.78314453 1.96098877 -12.62878906 1.60947754 -11.43945312 1.24731445 C-9.84327148 0.77878052 -9.84327148 0.77878052 -8.21484375 0.30078125 C-6.80900024 -0.11433716 -6.80900024 -0.11433716 -5.37475586 -0.5378418 C-3 -1 -3 -1 0 0 Z " fill="#EA2C2D" transform="translate(629,209)"/>
<path d="M0 0 C-0.95712891 0.83144531 -0.95712891 0.83144531 -1.93359375 1.6796875 C-2.75988281 2.40414062 -3.58617187 3.12859375 -4.4375 3.875 C-5.26121094 4.59429688 -6.08492188 5.31359375 -6.93359375 6.0546875 C-9.4423099 8.41639004 -9.90844081 9.41140518 -10.4375 12.8125 C-10.27518117 16.17527304 -10.27518117 16.17527304 -7.6875 18.625 C5.42975505 28.12055354 25.28526853 28.48129617 40.9375 30.0625 C42.16430481 30.18848572 42.16430481 30.18848572 43.41589355 30.3170166 C101.93676905 36.29257068 158.69459174 33.9859753 216.62890625 23.46484375 C217.28928391 23.34500122 217.94966156 23.22515869 218.63005066 23.10168457 C221.65484254 22.54885092 224.67506353 21.9788681 227.69213867 21.38525391 C228.72701416 21.18722168 229.76188965 20.98918945 230.828125 20.78515625 C231.7140332 20.60863525 232.59994141 20.43211426 233.51269531 20.25024414 C238.33976537 19.76459958 241.72340426 21.18767714 245.859375 23.5546875 C247.2683606 24.34588989 247.2683606 24.34588989 248.70581055 25.15307617 C250.21268433 26.00542847 250.21268433 26.00542847 251.75 26.875 C265.70710356 34.61889268 280.17114278 41.11063078 295 47 C295 47.66 295 48.32 295 49 C254.76547949 65.83702283 212.85165389 76.37432638 169.5625 81.3125 C168.85213593 81.39390228 168.14177185 81.47530457 167.40988159 81.55917358 C149.6592249 83.56033513 131.98377596 84.23904164 114.125 84.25 C113.12476807 84.25067474 112.12453613 84.25134949 111.09399414 84.25204468 C66.31369126 84.2045138 19.11604448 79.88469485 -22 61 C-22.64130859 60.70625488 -23.28261719 60.41250977 -23.94335938 60.10986328 C-34.15109835 55.31507056 -45.75427343 48.03888909 -50 37 C-51.03668019 32.09304712 -50.47474386 28.23526298 -48 23.875 C-39.24056717 11.66488152 -24.97403116 6.1245859 -11.1875 1.4375 C-10.41680176 1.17380615 -9.64610352 0.9101123 -8.85205078 0.63842773 C-3.38123975 -1.12707992 -3.38123975 -1.12707992 0 0 Z " fill="#0073BD" transform="translate(265,790)"/>
<path d="M0 0 C-0.33 0.66 -0.66 1.32 -1 2 C-3.06345621 2.66846221 -5.16225159 3.22831428 -7.26953125 3.7421875 C-8.62962449 4.08282202 -9.98956176 4.42407973 -11.34936523 4.76586914 C-12.07533905 4.94570343 -12.80131287 5.12553772 -13.54928589 5.31082153 C-64.14355541 15.79419409 -64.14355541 15.79419409 -105 43 C-105.65316967 46.08769881 -105.65316967 46.08769881 -104 49 C-78.45347998 68.77426382 -26.52403314 63.47525419 4 64 C4.67238708 64.01202454 5.34477417 64.02404907 6.03753662 64.03643799 C55.6438498 64.88581466 105.53372301 62.57525044 155 59 C155.95128784 58.9318811 156.90257568 58.86376221 157.88269043 58.7935791 C210.22298271 55.01979967 262.18585863 48.20768667 314 40 C315.90362051 39.6997092 317.80726602 39.39957689 319.7109375 39.09960938 C324.14087561 38.40131712 328.57052853 37.70124593 333 37 C333 37.66 333 38.32 333 39 C332.28682617 39.3309668 331.57365234 39.66193359 330.83886719 40.00292969 C327.4705685 41.57408153 324.10912276 43.15936226 320.75 44.75 C320.13299225 45.0407843 319.5159845 45.3315686 318.88027954 45.63116455 C311.79530175 48.98298221 305.00097391 52.4812774 298.47485352 56.85205078 C285.9904737 65.1643105 272.53141936 67.90246786 257.98699951 70.62359619 C254.74787722 71.23719371 251.51758572 71.89517169 248.28515625 72.54296875 C203.45336764 81.29417859 157.86879103 85.92684135 112.3125 88.6875 C111.31337585 88.74843842 110.31425171 88.80937683 109.28485107 88.87216187 C81.70369431 90.52780597 54.12866701 91.20874955 26.5 91.1875 C25.80374638 91.18738041 25.10749275 91.18726082 24.39014053 91.1871376 C-1.44372564 91.18156099 -27.21248543 90.64358311 -53 89 C-53.8036499 88.94908203 -54.6072998 88.89816406 -55.43530273 88.84570312 C-155.73935385 82.38305043 -155.73935385 82.38305043 -178 63 C-180.08424283 59.87363575 -180.60828267 57.91179259 -180.5012207 54.171875 C-179.35248748 49.19421756 -174.93163328 45.37130535 -170.89086914 42.50268555 C-168.55133207 41.12841023 -166.18215837 39.89026445 -163.75 38.6875 C-162.84668945 38.22947998 -161.94337891 37.77145996 -161.01269531 37.29956055 C-111.576231 12.77777021 -55.21640854 -1.01625292 0 0 Z " fill="#0073BC" transform="translate(284,561)"/>
<path d="M0 0 C-1.56471348 3.84066037 -4.06034127 6.13033315 -7 9 C-10.96519709 13.62606327 -12.39491328 16.78430433 -12.26953125 23.0078125 C-11.81773949 26.3471429 -10.47352893 27.77382396 -8 30 C4.57529997 38.13695881 21.89033592 38.84533587 36.4375 40.125 C38.25993285 40.29129222 40.08236115 40.45763433 41.90478516 40.62402344 C46.44332406 41.03219781 50.98337605 41.4187252 55.52471924 41.79431152 C57.76807211 41.98072748 60.0107712 42.1734762 62.25341797 42.36816406 C136.05149559 48.56036344 209.53792271 41.30437294 282.15313721 28.17977905 C284.43324156 27.77162807 286.71485433 27.37885306 289 27 C290.12492104 26.81289459 290.12492104 26.81289459 291.27256775 26.62200928 C296.70710104 25.81348194 296.70710104 25.81348194 299.44140625 27.5546875 C300.49134766 28.70324219 300.49134766 28.70324219 301.5625 29.875 C311.76617219 39.92289093 325.22844508 45.84078758 338 52 C334.23897826 55.76102174 328.28589913 56.29929171 323.25 57.625 C322.5939679 57.7985199 321.93793579 57.97203979 321.26202393 58.15081787 C258.95831951 74.55144243 194.38371492 82.97126927 130 84 C128.97986816 84.01659668 127.95973633 84.03319336 126.90869141 84.05029297 C120.27015833 84.14019786 113.63808042 84.11212238 107 84 C105.93233398 83.98211426 104.86466797 83.96422852 103.76464844 83.94580078 C-15.13104347 81.60479621 -15.13104347 81.60479621 -50 51 C-53.7351995 47.0726606 -55.27071805 43.46399411 -55.6875 38.0625 C-55.25807738 31.0521757 -51.81836721 26.50047057 -46.6796875 21.94140625 C-35.40491028 13.30862907 -14.62376918 0 0 0 Z " fill="#0073BC" transform="translate(240,677)"/>
<path d="M0 0 C0.33 0 0.66 0 1 0 C0.40612798 14.22323479 -6.34894046 24.92358853 -16.625 34.625 C-79.69530725 88.34449014 -191.72131717 91.04511926 -270.25 95.6875 C-271.27740295 95.74843842 -272.30480591 95.80937683 -273.36334229 95.87216187 C-280.573546 96.29298271 -287.78529284 96.66535074 -295 97 C-296.59553207 97.07418655 -296.59553207 97.07418655 -298.22329712 97.14987183 C-320.8733942 98.15974877 -343.51959383 98.20167681 -366.1875 98.1875 C-367.1453754 98.18723312 -368.10325081 98.18696625 -369.09015274 98.18669128 C-399.76542359 98.17598097 -430.37504306 97.9350396 -461 96 C-462.04923645 95.93447937 -463.0984729 95.86895874 -464.17950439 95.80145264 C-597.90797692 87.35849227 -597.90797692 87.35849227 -617 67 C-607.57295384 67.58144467 -598.28294364 68.7067673 -588.9329834 69.98370361 C-566.01597842 73.08073602 -543.05938631 75.29101301 -520 77 C-519.00007019 77.0762561 -518.00014038 77.15251221 -516.96990967 77.2310791 C-444.13535208 82.75320682 -369.83415514 82.36007691 -297 77 C-294.93605768 76.85368588 -292.8720929 76.70768815 -290.80810547 76.56201172 C-147.8134428 66.45079542 -147.8134428 66.45079542 -4 6 C-2.45122927 4.05261803 -1.24331291 2.16228333 0 0 Z " fill="#0073BC" transform="translate(774,923)"/>
<path d="M0 0 C5.69574581 5.59900278 9.79991228 11.95318926 13.66455078 18.90283203 C14.10412109 19.69302734 14.54369141 20.48322266 14.99658203 21.29736328 C23.11544792 37.68713375 22.26821133 57.12557683 16.59814453 74.09423828 C-0.34342257 116.97932729 -42.26941012 141.13230409 -82.33544922 158.90283203 C-95.23906685 164.36949966 -108.535692 168.71489429 -121.89794922 172.90283203 C-123.1294873 173.28922852 -124.36102539 173.675625 -125.62988281 174.07373047 C-131.19136123 175.77771873 -136.53454666 177.35766645 -142.33544922 177.90283203 C-140.1780279 173.09012293 -137.53392243 170.83177476 -132.89794922 168.40673828 C-131.57005371 167.70206421 -131.57005371 167.70206421 -130.21533203 166.9831543 C-128.78979004 166.23183228 -128.78979004 166.23183228 -127.33544922 165.46533203 C-105.13563228 153.53829314 -84.2122603 139.63759363 -65.33544922 122.90283203 C-64.81756836 122.45198242 -64.2996875 122.00113281 -63.76611328 121.53662109 C-56.52359191 115.22572894 -50.17483639 108.56086511 -44.33544922 100.90283203 C-43.65869141 100.05333984 -42.98193359 99.20384766 -42.28466797 98.32861328 C-30.0788071 82.4728445 -22.05657994 63.12344445 -23.33544922 42.90283203 C-25.54958403 26.20541168 -34.35629139 12.93784611 -47.46044922 2.65283203 C-53.94618741 -1.8471043 -60.90871218 -4.5660827 -68.33544922 -7.09716797 C-69.11404297 -7.36529297 -69.89263672 -7.63341797 -70.69482422 -7.90966797 C-84.66892889 -11.80941811 -98.79517539 -8.49348849 -112.32177734 -4.6484375 C-114.64061203 -4.01362558 -116.96826277 -3.51575582 -119.33544922 -3.09716797 C-116.32626322 -9.86783646 -110.95833339 -14.20181258 -104.12451172 -16.87841797 C-96.07006896 -19.74577563 -87.84187179 -22.10390306 -79.33544922 -23.09716797 C-77.88912109 -23.27892578 -77.88912109 -23.27892578 -76.41357422 -23.46435547 C-48.74684097 -26.28608697 -20.68253413 -19.26080141 0 0 Z " fill="#0073BD" transform="translate(754.33544921875,575.09716796875)"/>
</svg>
