<?xml version="1.0" encoding="UTF-8"?>
<svg version="1.1" xmlns="http://www.w3.org/2000/svg" width="71" height="197">
<path d="M0 0 C0.09295627 13.72648962 0.1638949 27.45290351 0.20724869 41.17964458 C0.2280634 47.5545284 0.25626919 53.92919579 0.30175781 60.30395508 C0.34543371 66.46369853 0.36918304 72.62323467 0.37950897 78.78312111 C0.3868614 81.12529574 0.40121833 83.46745989 0.42292023 85.80954552 C0.67651406 114.32924701 0.67651406 114.32924701 -7.625 125.0625 C-15.00891825 132.57040196 -24.6355511 134.0793485 -34.77685547 134.24121094 C-44.01873725 134.27405474 -52.14842499 134.26738725 -60.0625 128.9375 C-62.77413113 126.22586887 -63.2297698 124.43293838 -63.4375 120.6875 C-63.38686933 116.75729404 -63.14912464 116.17458494 -60.4375 113 C-55.53263659 110.14626129 -52.08612296 109.73923463 -46.5 110.4375 C-42.30183075 112.3116827 -40.41278766 114.61033036 -37.67578125 118.22265625 C-35.79779053 120.21446459 -34.6696592 120.62194369 -32 121 C-29.89403648 117.84105472 -29.74622836 117.07371215 -29.7215271 113.46321106 C-29.71036362 112.53353012 -29.69920013 111.60384918 -29.68769836 110.64599609 C-29.68553818 109.62820068 -29.68337799 108.61040527 -29.68115234 107.56176758 C-29.66608391 105.95177132 -29.66608391 105.95177132 -29.65071106 104.30924988 C-29.61977033 100.75434922 -29.60281355 97.19952424 -29.5859375 93.64453125 C-29.56723463 91.18258508 -29.54766189 88.72064538 -29.5272522 86.25871277 C-29.47583203 79.77324225 -29.43625919 73.28775093 -29.39910889 66.80218506 C-29.35913117 60.18642997 -29.30801044 53.57076216 -29.2578125 46.95507812 C-29.16093617 33.97011441 -29.07619064 20.98510071 -29 8 C-27.55520132 7.51620127 -26.11021366 7.03296688 -24.66514587 6.54997253 C-23.86048858 6.28081119 -23.05583128 6.01164984 -22.22679043 5.73433208 C-18.37405647 4.46381011 -14.47254791 3.39012353 -10.5625 2.3125 C-9.76134766 2.08755859 -8.96019531 1.86261719 -8.13476562 1.63085938 C-2.25078362 0 -2.25078362 0 0 0 Z " fill="#1A1A1A" transform="translate(63,63)"/>
<path d="M0 0 C4.57466481 5.59499446 4.17390518 12.07157266 3.59375 18.94921875 C1.86357116 24.44508093 -1.75545404 27.74246008 -6.40625 30.94921875 C-11.47385206 33.2718697 -16.21474721 33.8307877 -21.640625 32.33203125 C-27.68647716 30.03947657 -31.30587279 26.61847993 -34.40625 20.94921875 C-36.49716125 14.31731007 -35.8774587 8.25031708 -32.87109375 2.06640625 C-29.61298156 -2.64265191 -24.79581537 -5.23731219 -19.46875 -7.05078125 C-11.39171157 -7.05078125 -6.02344351 -5.49268927 0 0 Z " fill="#4D63AD" transform="translate(63.40625,30.05078125)"/>
</svg>
