<?xml version="1.0" encoding="UTF-8"?>
<!DOCTYPE svg PUBLIC "-//W3C//DTD SVG 1.1//EN" "http://www.w3.org/Graphics/SVG/1.1/DTD/svg11.dtd">
<svg xmlns="http://www.w3.org/2000/svg" version="1.1" width="863px" height="922px" style="shape-rendering:geometricPrecision; text-rendering:geometricPrecision; image-rendering:optimizeQuality; fill-rule:evenodd; clip-rule:evenodd" xmlns:xlink="http://www.w3.org/1999/xlink">
<g><path style="opacity:0.991" fill="#df6c1f" d="M 599.5,921.5 C 513.833,921.5 428.167,921.5 342.5,921.5C 301.112,914.543 260.779,903.377 221.5,888C 186.43,874.57 155.93,854.403 130,827.5C 116.283,811.71 107.95,793.377 105,772.5C 104.009,573.478 104.342,374.478 106,175.5C 109.681,157.805 117.348,142.138 129,128.5C 153.579,102.274 182.746,82.7744 216.5,70C 271.861,48.4602 329.195,35.4602 388.5,31C 478.814,22.6907 567.814,30.024 655.5,53C 686.676,61.7564 716.343,74.0897 744.5,90C 769.188,103.687 789.021,122.52 804,146.5C 809.461,156.55 813.128,167.217 815,178.5C 815.231,376.341 815.731,574.175 816.5,772C 815.268,798.622 805.435,821.455 787,840.5C 759.726,866.068 728.226,884.901 692.5,897C 661.995,907.541 630.995,915.708 599.5,921.5 Z M 429.5,86.5 C 493.276,84.1444 556.276,89.9777 618.5,104C 656.398,112.292 691.732,126.626 724.5,147C 733.319,153.82 741.485,161.32 749,169.5C 756.922,179.502 758.922,190.502 755,202.5C 753.254,206.327 751.254,209.993 749,213.5C 738.967,225.536 727.134,235.369 713.5,243C 672.961,264.513 629.961,278.846 584.5,286C 480.762,304.005 378.096,299.339 276.5,272C 245.486,263.49 216.819,250.157 190.5,232C 179.424,223.929 170.924,213.763 165,201.5C 163,194.833 163,188.167 165,181.5C 170.924,169.237 179.424,159.071 190.5,151C 216.819,132.843 245.486,119.51 276.5,111C 326.699,96.966 377.699,88.7993 429.5,86.5 Z M 756.5,284.5 C 757.664,320.664 757.831,356.998 757,393.5C 755.06,400.047 752.06,406.047 748,411.5C 731.351,428.752 711.851,441.919 689.5,451C 640.301,470.382 589.301,482.049 536.5,486C 455.075,493.224 374.742,486.89 295.5,467C 266.927,459.476 239.594,448.81 213.5,435C 197.33,425.994 183.163,414.494 171,400.5C 167.863,395.892 165.53,390.892 164,385.5C 163.167,352.162 163.333,318.828 164.5,285.5C 205.28,310.713 249.28,328.213 296.5,338C 408.651,361.828 520.651,361.162 632.5,336C 669.132,327.345 704.132,314.345 737.5,297C 744.241,293.307 750.574,289.14 756.5,284.5 Z M 163.5,473.5 C 204.847,499.35 249.514,517.517 297.5,528C 418.172,555.156 538.506,553.822 658.5,524C 693.396,514.765 726.062,500.598 756.5,481.5C 757.667,516.162 757.833,550.829 757,585.5C 755.06,592.047 752.06,598.047 748,603.5C 731.351,620.752 711.851,633.919 689.5,643C 640.301,662.382 589.301,674.049 536.5,678C 450.069,685.813 365.069,678.147 281.5,655C 250.382,646.081 221.382,632.748 194.5,615C 183.957,607.458 175.124,598.291 168,587.5C 166.275,584.326 164.942,580.993 164,577.5C 163.5,542.835 163.333,508.168 163.5,473.5 Z M 163.5,665.5 C 204.847,691.35 249.514,709.517 297.5,720C 418.172,747.156 538.506,745.822 658.5,716C 693.396,706.765 726.062,692.598 756.5,673.5C 757.667,708.162 757.833,742.829 757,777.5C 755.06,784.047 752.06,790.047 748,795.5C 731.351,812.752 711.851,825.919 689.5,835C 640.301,854.382 589.301,866.049 536.5,870C 450.069,877.813 365.069,870.147 281.5,847C 250.382,838.081 221.382,824.748 194.5,807C 183.957,799.458 175.124,790.291 168,779.5C 166.275,776.326 164.942,772.993 164,769.5C 163.5,734.835 163.333,700.168 163.5,665.5 Z"/></g>
</svg>
